<svg width="1440" height="64" viewBox="0 0 1440 64" fill="none" xmlns="http://www.w3.org/2000/svg">
<path fill-rule="evenodd" clip-rule="evenodd" d="M1440 44.6514L1392 44.6514C1344 44.6514 1248 44.6514 1152 50.2328C1056 55.8142 960 66.977 864 63.256C768 59.5351 672 40.9304 576 40.9304C480 40.9304 384 59.5351 288 61.3955C192 63.256 95.9999 48.3722 47.9999 40.9303L-5.45531e-05 33.4884L-5.16254e-05 -1.69576e-06L48 2.50054e-06C96 6.69683e-06 192 1.50894e-05 288 2.3482e-05C384 3.18746e-05 480 4.02672e-05 576 4.86598e-05C672 5.70524e-05 768 6.54449e-05 864 7.38375e-05C960 8.22301e-05 1056 9.06227e-05 1152 9.90153e-05C1248 0.000107408 1344 0.0001158 1392 0.000119997L1440 0.000124193L1440 44.6514Z" fill="#297BAA"/>
</svg>
