<svg aria-hidden="true" xmlns="http://www.w3.org/2000/svg" xmlns:xlink="http://www.w3.org/1999/xlink"><symbol id="arrow-left-1" viewBox="0 0 13 23" xmlns="http://www.w3.org/2000/svg"><defs><style>.acls-1{fill:#b2b2b2;}</style></defs><path class="acls-1" d="M11.78,22.84a.74.74,0,0,1-.53-.22L.69,12A.75.75,0,0,1,.69,11L11.25.38a.75.75,0,1,1,1.06,1.06L2.28,11.5l10,10.06a.75.75,0,0,1,0,1.06A.74.74,0,0,1,11.78,22.84Z"/></symbol><symbol id="arrow-right-1" viewBox="0 0 13 23" xmlns="http://www.w3.org/2000/svg"><defs><style>.bcls-1{fill:#b2b2b2;}</style></defs><path class="bcls-1" d="M1.22,22.84a.74.74,0,0,1-.53-.22.75.75,0,0,1,0-1.06l10-10.06L.69,1.44A.75.75,0,0,1,1.75.38L12.31,11a.75.75,0,0,1,0,1.06L1.75,22.62A.74.74,0,0,1,1.22,22.84Z"/></symbol><symbol id="arrow-str-1" viewBox="0 0 20 15" xmlns="http://www.w3.org/2000/svg"><defs><style>.ccls-1{fill:#eaeaea;}</style></defs><path class="ccls-1" d="M12.43,14.32a.74.74,0,0,1-.53-.22.75.75,0,0,1,0-1.06l4.79-4.79H1.5a.75.75,0,0,1,0-1.5H16.69L11.9,2A.75.75,0,1,1,13,.9L19,7A.75.75,0,0,1,19,8L13,14.1A.74.74,0,0,1,12.43,14.32Z"/></symbol></svg>