<svg width="1440" height="125" viewBox="0 0 1440 125" fill="none" xmlns="http://www.w3.org/2000/svg">
<path fill-rule="evenodd" clip-rule="evenodd" d="M1440 13.2227L1426.8 22.0377C1413.6 30.8527 1387.2 48.4827 1359.6 55.0939C1333.2 61.7052 1306.8 57.2977 1280.4 66.1127C1252.8 74.9277 1226.4 96.9652 1200 94.7615C1173.6 92.5577 1147.2 66.1127 1119.6 59.5014C1093.2 52.8902 1066.8 66.1127 1040.4 81.539C1012.8 96.9652 986.4 114.595 960 116.799C933.6 119.003 907.2 105.78 879.6 96.9652C853.2 88.1502 826.8 83.7427 800.4 90.354C772.8 96.9652 746.4 114.595 720 103.576C693.6 92.5577 667.2 52.8901 639.6 48.4826C613.2 44.0751 586.8 74.9277 560.4 79.3352C532.8 83.7427 506.4 61.7051 480 48.4826C453.6 35.2601 427.2 30.8526 399.6 39.6676C373.2 48.4826 346.8 70.5201 320.4 88.1502C292.8 105.78 266.4 119.003 240 123.41C213.6 127.818 187.2 123.41 159.6 105.78C133.2 88.1501 106.8 57.2976 80.3999 41.8713C52.7999 26.445 26.3999 26.445 13.2 26.445L8.61594e-06 26.445L1.09278e-05 1.14403e-05L13.2 1.25943e-05C26.3999 1.37483e-05 52.7999 1.60562e-05 80.3999 1.84691e-05C106.8 2.0777e-05 133.2 2.3085e-05 159.6 2.5393e-05C187.2 2.78058e-05 213.6 3.01138e-05 240 3.24218e-05C266.4 3.47297e-05 292.8 3.70377e-05 320.4 3.94506e-05C346.8 4.17585e-05 373.2 4.40665e-05 399.6 4.63744e-05C427.2 4.87873e-05 453.6 5.10953e-05 480 5.34032e-05C506.4 5.57112e-05 532.8 5.80192e-05 560.4 6.0432e-05C586.8 6.274e-05 613.2 6.50479e-05 639.6 6.73559e-05C667.2 6.97688e-05 693.6 7.20767e-05 720 7.43847e-05C746.4 7.66927e-05 772.8 7.90006e-05 800.4 8.14135e-05C826.8 8.37215e-05 853.2 8.60294e-05 879.6 8.83374e-05C907.2 9.07502e-05 933.6 9.30582e-05 960 9.53662e-05C986.4 9.76741e-05 1012.8 9.99821e-05 1040.4 0.000102395C1066.8 0.000104703 1093.2 0.000107011 1119.6 0.000109319C1147.2 0.000111732 1173.6 0.00011404 1200 0.000116348C1226.4 0.000118656 1252.8 0.000120964 1280.4 0.000123376C1306.8 0.000125684 1333.2 0.000127992 1359.6 0.0001303C1387.2 0.000132713 1413.6 0.000135021 1426.8 0.000136175L1440 0.000137329L1440 13.2227Z" fill="#1A6C9B"/>
</svg>
