<svg id="Шар_1" data-name="Шар 1" xmlns="http://www.w3.org/2000/svg" width="1440" height="125" viewBox="0 0 1440 125"><defs><style>.cls-1{fill:#2876a3;fill-rule:evenodd;}</style></defs><path class="cls-1" d="M1440,13.22,1426.8,22c-13.2,8.81-39.6,26.44-67.2,33.05-26.4,6.62-52.8,2.21-79.2,11-27.6,8.82-54,30.86-80.4,28.65s-52.8-28.65-80.4-35.26c-26.4-6.61-52.8,6.61-79.2,22C1012.8,97,986.4,114.6,960,116.8s-52.8-11-80.4-19.83c-26.4-8.82-52.8-13.23-79.2-6.62-27.6,6.62-54,24.25-80.4,13.23s-52.8-50.69-80.4-55.1c-26.4-4.4-52.8,26.45-79.2,30.86-27.6,4.4-54-17.63-80.4-30.86s-52.8-17.63-80.4-8.81c-26.4,8.81-52.8,30.85-79.2,48.48-27.6,17.63-54,30.85-80.4,35.26s-52.8,0-80.4-17.63C133.2,88.15,106.8,57.3,80.4,41.87c-27.6-15.43-54-15.43-67.2-15.43H0V0H1440Z"/></svg>