<svg width="21" height="22" viewBox="0 0 21 22" fill="none" xmlns="http://www.w3.org/2000/svg">
<path d="M10.5 2.39759C13.1506 2.39759 13.5121 2.39759 14.5964 2.39759C15.5602 2.39759 16.0422 2.6506 16.4036 2.77711C16.8855 3.03012 17.247 3.15663 17.6084 3.53615C17.9699 3.91566 18.2108 4.29518 18.3313 4.80121C18.4518 5.18072 18.5723 5.68675 18.6928 6.6988C18.6928 7.83735 18.6928 8.09036 18.6928 11C18.6928 13.9096 18.6928 14.1627 18.6928 15.3012C18.6928 16.3133 18.4518 16.8193 18.3313 17.1988C18.0904 17.7048 17.9699 18.0843 17.6084 18.4639C17.247 18.8434 16.8855 19.0964 16.4036 19.2229C16.0422 19.3494 15.5602 19.4759 14.5964 19.6024C13.5121 19.6024 13.2711 19.6024 10.5 19.6024C7.72892 19.6024 7.48795 19.6024 6.40362 19.6024C5.43976 19.6024 4.95783 19.3494 4.59639 19.2229C4.11446 18.9699 3.75301 18.8434 3.39157 18.4639C3.03012 18.0843 2.78916 17.7048 2.66868 17.1988C2.54819 16.8193 2.42771 16.3133 2.30723 15.3012C2.30723 14.1627 2.30723 13.9096 2.30723 11C2.30723 8.09036 2.30723 7.83735 2.30723 6.6988C2.30723 5.68675 2.54819 5.18072 2.66868 4.80121C2.90964 4.29518 3.03012 3.91566 3.39157 3.53615C3.75301 3.15663 4.11446 2.90361 4.59639 2.77711C4.95783 2.6506 5.43976 2.5241 6.40362 2.39759C7.48795 2.39759 7.8494 2.39759 10.5 2.39759ZM10.5 0.5C7.72892 0.5 7.48795 0.5 6.40362 0.5C5.31928 0.5 4.59639 0.753013 3.99398 1.00602C3.39157 1.25904 2.78916 1.63855 2.18675 2.27109C1.58434 2.90362 1.34337 3.40964 0.981928 4.16868C0.740965 4.80121 0.620482 5.56024 0.5 6.6988C0.5 7.83735 0.5 8.21687 0.5 11C0.5 13.9096 0.5 14.1627 0.5 15.3012C0.5 16.4398 0.740965 17.1988 0.981928 17.8313C1.22289 18.4639 1.58434 19.0964 2.18675 19.7289C2.78916 20.3614 3.27109 20.6145 3.99398 20.994C4.59639 21.247 5.31928 21.3735 6.40362 21.5C7.48795 21.5 7.8494 21.5 10.5 21.5C13.1506 21.5 13.5121 21.5 14.5964 21.5C15.6807 21.5 16.4036 21.247 17.006 20.994C17.6084 20.741 18.2108 20.3614 18.8133 19.7289C19.4157 19.0964 19.6566 18.5904 20.0181 17.8313C20.259 17.1988 20.3795 16.4398 20.5 15.3012C20.5 14.1627 20.5 13.7831 20.5 11C20.5 8.21687 20.5 7.83735 20.5 6.6988C20.5 5.56024 20.259 4.80121 20.0181 4.16868C19.7771 3.53615 19.4157 2.90362 18.8133 2.27109C18.2108 1.63855 17.7289 1.38554 17.006 1.00602C16.4036 0.753013 15.6807 0.626506 14.5964 0.5C13.5121 0.5 13.2711 0.5 10.5 0.5Z" fill="white"/>
<path d="M10.5 5.56024C7.60843 5.56024 5.31928 7.96386 5.31928 11C5.31928 14.0361 7.60843 16.4398 10.5 16.4398C13.3916 16.4398 15.6807 14.0361 15.6807 11C15.6807 7.96386 13.3916 5.56024 10.5 5.56024ZM10.5 14.5422C8.69277 14.5422 7.12651 13.0241 7.12651 11C7.12651 9.10241 8.57229 7.45783 10.5 7.45783C12.3072 7.45783 13.8735 8.9759 13.8735 11C13.8735 12.8976 12.3072 14.5422 10.5 14.5422Z" fill="white"/>
<path d="M15.8012 6.6988C16.4666 6.6988 17.006 6.13241 17.006 5.43374C17.006 4.73506 16.4666 4.16868 15.8012 4.16868C15.1358 4.16868 14.5964 4.73506 14.5964 5.43374C14.5964 6.13241 15.1358 6.6988 15.8012 6.6988Z" fill="white"/>
</svg>
