<svg width="22" height="23" viewBox="0 0 22 23" fill="none" xmlns="http://www.w3.org/2000/svg">
<path d="M18.4268 3.66582C16.4512 1.59863 13.8171 0.450195 11.0366 0.450195C5.2561 0.450195 0.57317 5.35019 0.57317 11.3986C0.57317 13.3127 1.08537 15.2268 1.96341 16.8346L0.5 22.5002L6.06098 20.9689C7.59756 21.8111 9.28049 22.2705 11.0366 22.2705C16.8171 22.2705 21.5 17.3705 21.5 11.3221C21.4268 8.48926 20.4024 5.73301 18.4268 3.66582ZM16.0854 15.3033C15.8659 15.9158 14.8415 16.5283 14.3293 16.6049C13.8902 16.6814 13.3049 16.6814 12.7195 16.5283C12.3537 16.3752 11.8415 16.2221 11.2561 15.9158C8.62195 14.7674 6.93903 12.0111 6.79268 11.7814C6.64634 11.6283 5.69512 10.3268 5.69512 8.94863C5.69512 7.57051 6.35366 6.95801 6.57317 6.65176C6.79268 6.34551 7.08536 6.34551 7.30488 6.34551C7.45122 6.34551 7.67073 6.34551 7.81707 6.34551C7.96341 6.34551 8.18293 6.26894 8.40244 6.80488C8.62195 7.34082 9.13414 8.71895 9.20731 8.79551C9.28049 8.94863 9.28049 9.10176 9.20731 9.25488C9.13414 9.40801 9.06097 9.56113 8.91463 9.71426C8.76829 9.86738 8.62195 10.0971 8.54878 10.1736C8.40244 10.3268 8.2561 10.4799 8.40244 10.7096C8.54878 11.0158 9.06097 11.858 9.86585 12.6236C10.8902 13.5424 11.6951 13.8486 11.9878 14.0018C12.2805 14.1549 12.4268 14.0783 12.5732 13.9252C12.7195 13.7721 13.2317 13.1596 13.378 12.8533C13.5244 12.5471 13.7439 12.6236 13.9634 12.7002C14.1829 12.7768 15.5 13.4658 15.7195 13.6189C16.0122 13.7721 16.1585 13.8486 16.2317 13.9252C16.3049 14.1549 16.3049 14.6908 16.0854 15.3033Z" fill="white"/>
</svg>
