<svg width="23" height="16" viewBox="0 0 23 16" fill="none" xmlns="http://www.w3.org/2000/svg">
<path fill-rule="evenodd" clip-rule="evenodd" d="M2.76249 15.0568C2.37023 14.9408 2.01232 14.7343 1.71896 14.4549C1.4256 14.1754 1.2054 13.8312 1.07695 13.4512C0.342921 11.4874 0.125431 3.28693 1.53911 1.66807C2.00961 1.14145 2.67389 0.817218 3.38777 0.765759C7.18024 0.36768 18.8975 0.420757 20.2432 0.898453C20.6217 1.01832 20.9675 1.22026 21.2547 1.48912C21.5419 1.75799 21.763 2.08681 21.9015 2.45096C22.7035 4.48117 22.7307 11.8589 21.7928 13.8095C21.544 14.3173 21.1275 14.7285 20.6102 14.9772C19.1965 15.6672 4.63833 15.6539 2.76249 15.0568ZM8.78422 11.2087L15.5808 7.75869L8.78422 4.28213V11.2087Z" fill="white"/>
</svg>
