<svg width="1440" height="64" viewBox="0 0 1440 64" fill="none" xmlns="http://www.w3.org/2000/svg">
<path fill-rule="evenodd" clip-rule="evenodd" d="M0 19.3486L48 19.3486C96 19.3486 192 19.3486 288 13.7672C384 8.18579 480 -2.97702 576 0.743914C672 4.46485 768 23.0695 864 23.0695C960 23.0695 1056 4.46485 1152 2.60438C1248 0.743914 1344 15.6277 1392 23.0695L1440 30.5114V63.9999L1392 63.9999C1344 63.9999 1248 63.9999 1152 63.9999C1056 63.9999 960 63.9999 864 63.9999C768 63.9999 672 63.9999 576 63.9999C480 63.9999 384 63.9999 288 63.9999C192 63.9999 96 63.9999 48 63.9999L0 63.9999L0 19.3486Z" fill="#1D6F9E"/>
</svg>
