<svg width="25" height="25" viewBox="0 0 25 25" fill="none" xmlns="http://www.w3.org/2000/svg">
<path d="M20.8552 4.13287C18.6326 1.91803 15.6692 0.687561 12.5412 0.687561C6.03811 0.687561 0.769816 5.93756 0.769816 12.418C0.769816 14.4688 1.34604 16.5196 2.33384 18.2422L0.6875 24.3126L6.9436 22.6719C8.67226 23.5743 10.5655 24.0665 12.5412 24.0665C19.0442 24.0665 24.3125 18.8165 24.3125 12.336C24.2302 9.30084 23.0777 6.34772 20.8552 4.13287ZM18.221 16.6016C17.9741 17.2579 16.8216 17.9141 16.2454 17.9962C15.7515 18.0782 15.093 18.0782 14.4345 17.9141C14.0229 17.7501 13.4466 17.586 12.7881 17.2579C9.8247 16.0274 7.9314 13.0743 7.76677 12.8282C7.60214 12.6641 6.53201 11.2696 6.53201 9.79303C6.53201 8.31647 7.27287 7.66022 7.51982 7.33209C7.76677 7.00397 8.09604 7.00397 8.34299 7.00397C8.50762 7.00397 8.75457 7.00397 8.9192 7.00397C9.08384 7.00397 9.33079 6.92194 9.57774 7.49615C9.82469 8.07037 10.4009 9.54694 10.4832 9.62897C10.5655 9.79303 10.5655 9.95709 10.4832 10.1212C10.4009 10.2852 10.3186 10.4493 10.154 10.6133C9.98933 10.7774 9.82469 11.0235 9.74237 11.1055C9.57774 11.2696 9.41311 11.4337 9.57774 11.6797C9.74238 12.0079 10.3186 12.9102 11.2241 13.7305C12.3765 14.7149 13.282 15.043 13.6113 15.2071C13.9405 15.3712 14.1052 15.2891 14.2698 15.1251C14.4344 14.961 15.0107 14.3047 15.1753 13.9766C15.3399 13.6485 15.5869 13.7305 15.8338 13.8126C16.0808 13.8946 17.5625 14.6329 17.8095 14.7969C18.1387 14.961 18.3034 15.043 18.3857 15.1251C18.468 15.3712 18.468 15.9454 18.221 16.6016Z" fill="white"/>
</svg>
